HIERARCHY
ROOT RootJoint
{
    OFFSET   0.000000   0.000000   0.000000
    CHANNELS 6 Xposition Yposition Zposition Xrotation Yrotation Zrotation
    JOINT pelvis_lowerback
    {
        OFFSET   0.000000   0.093605   0.000000
        CHANNELS 3 Xrotation Yrotation Zrotation
        JOINT lowerback_torso
        {
            OFFSET   0.000000   0.100000   0.000000
            CHANNELS 3 Xrotation Yrotation Zrotation
            JOINT torso_head
            {
                OFFSET   0.000000   0.282350   0.000000
                CHANNELS 3 Xrotation Yrotation Zrotation
                End Site
                {
                    OFFSET   0.000000   0.192650   0.000000
                }
            }
            JOINT rTorso_Clavicle
            {
                OFFSET  -0.001000   0.157500   0.000000
                CHANNELS 3 Xrotation Yrotation Zrotation
                JOINT rShoulder
                {
                    OFFSET  -0.117647   0.000000   0.000000
                    CHANNELS 3 Xrotation Yrotation Zrotation
                    JOINT rElbow
                    {
                        OFFSET  -0.245000   0.000000   0.000000
                        CHANNELS 3 Xrotation Yrotation Zrotation
                        JOINT rWrist
                        {
                            OFFSET  -0.240000   0.000000   0.000000
                            CHANNELS 3 Xrotation Yrotation Zrotation
                            End Site
                            {
                                OFFSET  -0.116353  -0.002500   0.000000
                            }
                        }
                    }
                }
            }
            JOINT lTorso_Clavicle
            {
                OFFSET   0.001000   0.157500   0.000000
                CHANNELS 3 Xrotation Yrotation Zrotation
                JOINT lShoulder
                {
                    OFFSET   0.117647   0.000000   0.000000
                    CHANNELS 3 Xrotation Yrotation Zrotation
                    JOINT lElbow
                    {
                        OFFSET   0.245000   0.000000   0.000000
                        CHANNELS 3 Xrotation Yrotation Zrotation
                        JOINT lWrist
                        {
                            OFFSET   0.240000   0.000000   0.000000
                            CHANNELS 3 Xrotation Yrotation Zrotation
                            End Site
                            {
                                OFFSET   0.116353  -0.002500   0.000000
                            }
                        }
                    }
                }
            }
        }
    }
    JOINT rHip
    {
        OFFSET  -0.100000  -0.051395   0.000000
        CHANNELS 3 Xrotation Yrotation Zrotation
        JOINT rKnee
        {
            OFFSET   0.000000  -0.410000   0.000000
            CHANNELS 3 Xrotation Yrotation Zrotation
            JOINT rAnkle
            {
                OFFSET   0.000000  -0.390000   0.000000
                CHANNELS 3 Xrotation Yrotation Zrotation
                JOINT rToeJoint
                {
                    OFFSET   0.000000  -0.050000   0.130000
                    CHANNELS 3 Xrotation Yrotation Zrotation
                    End Site
                    {
                        OFFSET  -0.010000   0.002000   0.060000
                    }
                }
            }
        }
    }
    JOINT lHip
    {
        OFFSET   0.100000  -0.051395   0.000000
        CHANNELS 3 Xrotation Yrotation Zrotation
        JOINT lKnee
        {
            OFFSET   0.000000  -0.410000   0.000000
            CHANNELS 3 Xrotation Yrotation Zrotation
            JOINT lAnkle
            {
                OFFSET   0.000000  -0.390000   0.000000
                CHANNELS 3 Xrotation Yrotation Zrotation
                JOINT lToeJoint
                {
                    OFFSET   0.000000  -0.050000   0.130000
                    CHANNELS 3 Xrotation Yrotation Zrotation
                    End Site
                    {
                        OFFSET   0.010000   0.002000   0.060000
                    }
                }
            }
        }
    }
}
MOTION
Frames: 7
Frame Time:   0.008333
 -2.561734   0.945887   6.301728  -1.752365  44.436705   6.266715   4.465535  -0.475094   2.243526   2.833156  -2.352905   1.505773   0.691165  -0.451233   2.648645   1.324947  -8.931080  -1.872599   5.123194   3.471778  54.460985  -0.003968  31.836826   0.000887   0.092330   2.833269   0.837940   6.094579   7.663128   0.050412  11.219632  -5.706991 -59.707829  -0.001304 -21.192385  -0.004796   3.360760  -2.014925  -4.712287   2.455001  -5.868071  -5.714381   8.586216  -0.000135  -0.000492   2.100652  -5.128165   2.037274 -18.728600   0.000260   0.001775   1.004541   5.569385   5.406873  21.453484  -0.009010   0.014068  -9.448764   8.911902   1.083022  -6.994501  -0.000922   0.000497
 -2.559545   0.946193   6.304362  -1.675929  44.240126   5.952946   4.540968  -0.342887   2.306397   2.769340  -2.261996   1.499098   0.753527  -0.454591   2.650871   1.233054  -8.789721  -2.235943   4.928733   3.570973  54.718080  -0.003669  32.019954   0.000721  -0.057987   2.732441   0.737268   6.041082   7.803178   0.208959  11.121546  -5.504907 -59.754880  -0.001217 -21.605556  -0.005057   3.225278  -1.855404  -4.578048   2.505083  -5.828545  -5.441563   8.751106  -0.000166  -0.000627   2.465450  -5.053793   2.054280 -19.671856  -0.000044   0.002286   1.023295   5.406721   5.389990  19.901298  -0.009150   0.017049  -9.115340   8.845114   1.155270  -7.180804  -0.001303   0.001087
 -2.557384   0.946557   6.306917  -1.584316  44.018258   5.614755   4.613638  -0.217021   2.356767   2.700806  -2.166822   1.500454   0.814904  -0.458273   2.655296   1.129676  -8.629228  -2.583313   4.726588   3.680831  54.967842  -0.003443  32.202069   0.000607  -0.202864   2.658970   0.667595   5.973689   7.922004   0.375702  11.013729  -5.324877 -59.794480  -0.001128 -22.004260  -0.005024   3.088216  -1.765370  -4.441656   2.526522  -5.791241  -5.158731   8.922503  -0.000200  -0.000790   2.889365  -4.980267   2.079394 -20.681093  -0.000333   0.003055   1.050105   5.243260   5.365344  18.427714  -0.009502   0.019528  -8.801801   8.781009   1.222593  -7.329602  -0.001520   0.001450
 -2.555206   0.946918   6.309420  -1.486707  43.790709   5.273083   4.678752  -0.101746   2.390076   2.628743  -2.077910   1.499402   0.872936  -0.461997   2.658906   1.023502  -8.465622  -2.908908   4.526134   3.791394  55.204091  -0.003274  32.378407   0.000549  -0.342200   2.621630   0.610956   5.899389   8.022531   0.546031  10.903245  -5.161307 -59.821851  -0.001022 -22.381383  -0.004786   2.954318  -1.712097  -4.296400   2.539872  -5.755966  -4.881050   9.090706  -0.000223  -0.000928   3.324231  -4.908318   2.111053 -21.692538  -0.000578   0.003771   1.081240   5.090955   5.325233  17.053323  -0.010010   0.021065  -8.509522   8.721194   1.285867  -7.467506  -0.001675   0.001682
 -2.552995   0.947246   6.311887  -1.384845  43.563777   4.929642   4.734037   0.002510   2.410196   2.553588  -1.997393   1.494429   0.926858  -0.465670   2.661132   0.919718  -8.305829  -3.214001   4.332656   3.898256  55.425762  -0.003143  32.546472   0.000532  -0.476093   2.607539   0.559512   5.822239   8.109078   0.715566  10.793525  -5.011384 -59.839574  -0.000888 -22.736336  -0.004423   2.824786  -1.679311  -4.143063   2.551367  -5.722452  -4.608818   9.253834  -0.000234  -0.001032   3.751742  -4.838020   2.148018 -22.683919  -0.000776   0.004351   1.116876   4.950726   5.272786  15.775518  -0.010552   0.021766  -8.236859   8.665548   1.345294  -7.595644  -0.001776   0.001808
 -2.550707   0.947500   6.314297  -1.282219  43.331236   4.596132   4.781101   0.098839   2.416554   2.477143  -1.923623   1.481613   0.976509  -0.469152   2.661599   0.820257  -8.152539  -3.503089   4.148137   3.999635  55.631710  -0.003037  32.705647   0.000546  -0.604615   2.608050   0.509707   5.745319   8.185362   0.881341  10.687022  -4.873208 -59.851332  -0.000730 -23.069671  -0.003987   2.699825  -1.660039  -3.987384   2.553944  -5.698083  -4.342561   9.405090  -0.000250  -0.001112   4.173786  -4.796193   2.056509 -23.628709  -0.001955   0.004673   1.163037   4.823377   5.197749  14.589392  -0.011052   0.021885  -7.982447   8.613841   1.401052  -7.714847  -0.001837   0.001862
 -2.548381   0.947715   6.316686  -1.173306  43.109657   4.246613   4.816292   0.182089   2.423531   2.398437  -1.859795   1.470762   1.022081  -0.472654   2.662017   0.727460  -8.008769  -3.772252   3.974874   4.093817  55.823132  -0.002936  32.854399   0.000574  -0.727842   2.612982   0.458087   5.669308   8.252462   1.038234  10.584000  -4.745806 -59.858864  -0.000541 -23.381905  -0.003520   2.579805  -1.648271  -3.829557   2.567757  -5.667649  -4.081785   9.561220  -0.000235  -0.001166   4.551792  -4.726924   2.131137 -24.541510  -0.001669   0.005032   1.208860   4.704648   5.129928  13.487408  -0.011439   0.021451  -7.744872   8.565675   1.453374  -7.824478  -0.001854   0.001847
